<svg xmlns="http://www.w3.org/2000/svg" version="1.1" xmlns:xlink="http://www.w3.org/1999/xlink" xmlns:svgjs="http://svgjs.com/svgjs" width="1440" height="560" preserveAspectRatio="none" viewBox="0 0 1440 560"><g mask="url(&quot;#SvgjsMask1000&quot;)" fill="none"><rect width="1440" height="560" x="0" y="0" fill="#0e2a47"></rect><path d="M 0,267 C 57.6,225 172.8,79.8 288,57 C 403.2,34.2 460.8,143.6 576,153 C 691.2,162.4 748.8,85.2 864,104 C 979.2,122.8 1036.8,248.8 1152,247 C 1267.2,245.2 1382.4,125.4 1440,95L1440 560L0 560z" fill="#184a7e"></path><path d="M 0,465 C 96,449.8 288,372.4 480,389 C 672,405.6 768,551 960,548 C 1152,545 1344,408.8 1440,374L1440 560L0 560z" fill="#2264ab"></path></g><defs><mask id="SvgjsMask1000"><rect width="1440" height="560" fill="#ffffff"></rect></mask></defs></svg>